<svg display="none" version="1.1" xmlns="http://www.w3.org/2000/svg" fill="none">
    <symbol id="vk" viewBox="0 0 640 640">
       <path d="M320 12.8c-169.664 0-307.2 137.536-307.2 307.2s137.536 307.2 307.2 307.2 307.2-137.536 307.2-307.2-137.536-307.2-307.2-307.2zM438.144 359.392c0 0 27.168 26.816 33.856 39.264 0.192 0.256 0.288 0.512 0.352 0.64 2.72 4.576 3.36 8.128 2.016 10.784-2.24 4.416-9.92 6.592-12.544 6.784 0 0-46.656 0-48 0-3.328 0-10.304-0.864-18.752-6.688-6.496-4.544-12.896-12-19.136-19.264-9.312-10.816-17.376-20.16-25.504-20.16-1.024 0-2.080 0.16-3.040 0.48-6.144 1.984-14.016 10.752-14.016 34.112 0 7.296-5.76 11.488-9.824 11.488 0 0-20.96 0-21.984 0-7.488 0-46.496-2.624-81.056-39.072-42.304-44.64-80.384-134.176-80.704-135.008-2.4-5.792 2.56-8.896 7.968-8.896h48.48c6.464 0 8.576 3.936 10.048 7.424 1.728 4.064 8.064 20.224 18.464 38.4 16.864 29.632 27.2 41.664 35.488 41.664 1.568 0 3.008-0.416 4.448-1.152 10.816-6.016 8.8-44.576 8.32-52.576 0-1.504-0.032-17.248-5.568-24.8-3.968-5.472-10.72-7.552-14.816-8.32 1.056-1.568 3.424-3.968 6.368-5.408 7.424-3.712 20.8-4.256 34.080-4.256h7.392c14.4 0.192 18.112 1.12 23.328 2.432 10.56 2.528 10.784 9.344 9.856 32.672-0.288 6.624-0.576 14.112-0.576 22.944 0 1.92-0.096 3.968-0.096 6.144-0.32 11.872-0.704 25.344 7.68 30.88 1.088 0.672 2.336 1.056 3.648 1.056 2.912 0 11.68 0 35.424-40.736 10.4-17.984 18.464-39.2 19.040-40.768 0.48-0.832 1.888-3.392 3.552-4.384 1.312-0.768 3.072-0.928 3.968-0.928h56.992c6.208 0 10.464 0.928 11.264 3.328 1.408 3.808-0.256 15.424-26.272 50.656-4.384 5.824-8.256 10.912-11.616 15.328-23.584 30.912-23.584 32.48 1.472 55.936z"></path>
    </symbol>
    <symbol id="inst" viewBox="0 0 640 640">
       <path d="M416 320c0 53.024-42.976 96-96 96s-96-42.976-96-96c0-5.472 0.576-10.816 1.568-16h-33.568v127.904c0 8.896 7.2 16.096 16.096 16.096h223.84c8.864 0 16.064-7.2 16.064-16.096v-127.904h-33.568c0.992 5.184 1.568 10.528 1.568 16zM320 384c35.328 0 64-28.672 64-64s-28.672-64-64-64-64 28.672-64 64 28.672 64 64 64zM396.8 252.8h38.368c5.312 0 9.632-4.32 9.632-9.6v-38.368c0-5.312-4.32-9.632-9.632-9.632h-38.368c-5.312 0-9.632 4.32-9.632 9.632v38.368c0.032 5.28 4.352 9.6 9.632 9.6zM320 12.8c-169.664 0-307.2 137.536-307.2 307.2s137.536 307.2 307.2 307.2c169.664 0 307.2-137.536 307.2-307.2s-137.536-307.2-307.2-307.2zM480 444.448c0 19.552-16 35.552-35.552 35.552h-248.896c-19.552 0-35.552-16-35.552-35.552v-248.896c0-19.552 16-35.552 35.552-35.552h248.896c19.552 0 35.552 16 35.552 35.552v248.896z"></path>
    </symbol>
    <symbol id="facebook" viewBox="0 0 640 640">
        <path d="M320 12.8c-169.664 0-307.2 137.536-307.2 307.2s137.536 307.2 307.2 307.2 307.2-137.536 307.2-307.2-137.536-307.2-307.2-307.2zM392.768 225.088h-46.176c-5.472 0-11.552 7.2-11.552 16.768v33.344h57.76l-8.736 47.552h-49.024v142.752h-54.496v-142.752h-49.44v-47.552h49.44v-27.968c0-40.128 27.84-72.736 66.048-72.736h46.176v50.592z"></path>
    </symbol>
    <symbol id="ok" viewBox="0 0 97.75 97.75">
        <path d="M48.921,40.507c4.667-0.017,8.384-3.766,8.367-8.443c-0.017-4.679-3.742-8.402-8.411-8.406
                c-4.708-0.005-8.468,3.787-8.432,8.508C40.48,36.826,44.239,40.524,48.921,40.507z"/>
        <path d="M48.875,0C21.882,0,0,21.883,0,48.875S21.882,97.75,48.875,97.75S97.75,75.867,97.75,48.875S75.868,0,48.875,0z
                M48.945,14.863c9.52,0.026,17.161,7.813,17.112,17.438c-0.048,9.403-7.814,17.024-17.318,16.992
                c-9.407-0.032-17.122-7.831-17.066-17.253C31.726,22.515,39.445,14.837,48.945,14.863z M68.227,56.057
                c-2.105,2.161-4.639,3.725-7.453,4.816c-2.66,1.031-5.575,1.55-8.461,1.896c0.437,0.474,0.642,0.707,0.914,0.979
                c3.916,3.937,7.851,7.854,11.754,11.802c1.33,1.346,1.607,3.014,0.875,4.577c-0.799,1.71-2.592,2.834-4.351,2.713
                c-1.114-0.077-1.983-0.63-2.754-1.407c-2.956-2.974-5.968-5.895-8.862-8.925c-0.845-0.882-1.249-0.714-1.994,0.052
                c-2.973,3.062-5.995,6.075-9.034,9.072c-1.365,1.346-2.989,1.59-4.573,0.82c-1.683-0.814-2.753-2.533-2.671-4.262
                c0.058-1.166,0.632-2.06,1.434-2.858c3.877-3.869,7.742-7.75,11.608-11.628c0.257-0.257,0.495-0.53,0.868-0.93
                c-5.273-0.551-10.028-1.849-14.099-5.032c-0.506-0.396-1.027-0.778-1.487-1.222c-1.783-1.711-1.962-3.672-0.553-5.69
                c1.207-1.728,3.231-2.19,5.336-1.197c0.408,0.191,0.796,0.433,1.168,0.689c7.586,5.213,18.008,5.356,25.624,0.233
                c0.754-0.576,1.561-1.05,2.496-1.289c1.816-0.468,3.512,0.201,4.486,1.791C69.613,52.874,69.6,54.646,68.227,56.057z"/>
    </symbol>
    <symbol id="youtube" viewBox="0 0 640 640">
        <path d="M371.296 314.656l-71.872-33.536c-6.272-2.912-11.424 0.352-11.424 7.296v63.168c0 6.944 5.152 10.208 11.424 7.296l71.84-33.536c6.304-2.944 6.304-7.744 0.032-10.688zM320 12.8c-169.664 0-307.2 137.536-307.2 307.2s137.536 307.2 307.2 307.2 307.2-137.536 307.2-307.2-137.536-307.2-307.2-307.2zM320 444.8c-157.248 0-160-14.176-160-124.8s2.752-124.8 160-124.8 160 14.176 160 124.8-2.752 124.8-160 124.8z"></path>
    </symbol>
    <symbol id="linked" viewBox="0 0 640 640">
        <path d="M320 12.8c-169.664 0-307.2 137.536-307.2 307.2s137.536 307.2 307.2 307.2 307.2-137.536 307.2-307.2-137.536-307.2-307.2-307.2zM244.8 447.328h-62.208v-200.192h62.208v200.192zM213.312 222.56c-19.648 0-32.352-13.92-32.352-31.136 0-17.568 13.088-31.072 33.152-31.072s32.352 13.504 32.736 31.072c0 17.216-12.672 31.136-33.536 31.136zM472 447.328h-62.208v-110.944c0-25.824-9.024-43.36-31.52-43.36-17.184 0-27.392 11.872-31.904 23.296-1.664 4.064-2.080 9.824-2.080 15.552v115.424h-62.24v-136.32c0-24.992-0.8-45.888-1.632-63.872h54.048l2.848 27.808h1.248c8.192-13.056 28.256-32.32 61.824-32.32 40.928 0 71.616 27.424 71.616 86.368v118.368z"></path>
    </symbol>
    <symbol id="livejournal" viewBox="0 0 512 512">
        <path d="M511.994,256c0,141.387-114.607,255.996-255.996,255.996C114.613,511.988,0.006,397.387,0.006,256    c0-141.381,114.607-255.996,255.992-255.996C397.387,0.012,511.994,114.619,511.994,256z"/>
        <path d="M370.082,290.811l-0.039,0.016L240.1,117.502l-0.016,0.016   c-7.188-8.875-18.616-13.227-31.796-13.227c-16.023,0-34.593,6.43-51.202,19.023c-30.32,22.951-42.832,57.834-28.43,78.592   l-0.016,0.016L258.584,375.24l0.031-0.023l111.709,32.482L370.082,290.811z M332.599,357.365c-4.297,3.258-7.148,7.727-8.461,12.57   l-47.702-13.875c11.461-17.547,15.234-39.141,10.57-59.484c18.164,10.117,39.851,12.438,59.819,6.172l0.125,49.914   C341.95,352.592,336.896,354.1,332.599,357.365z M232.912,146.773l12.227,16.32c-14.281,1.547-29.983,7.813-44.241,18.609   c-14.296,10.828-24.632,24.297-30.054,37.68l-12.203-16.305c0.445-2.063,1.016-3.914,1.531-5.453   c2.094-6,5.391-11.961,9.781-17.773c4.664-6.188,10.391-11.836,16.945-16.82c6.554-4.961,13.538-8.906,20.741-11.719   c6.758-2.648,13.391-4.188,19.702-4.539C228.951,146.68,230.842,146.641,232.912,146.773z M273.615,267.732l-59.421-79.264   c4.945-3.219,10.093-5.875,15.366-7.938c6.742-2.641,13.391-4.164,19.703-4.555c1.594-0.07,3.484-0.094,5.563,0.023l86.054,114.764   c-8.227,2.266-16.891,2.859-25.577,1.641C298.584,290.029,283.787,281.271,273.615,267.732z M180.547,232.313   c0.445-2.063,1.016-3.906,1.539-5.445c2.109-5.992,5.383-11.984,9.797-17.789c3.405-4.531,7.382-8.766,11.812-12.656l59.405,79.264   l-0.016,0.016c10.164,13.531,14.477,30.25,12.125,47.047c-1.219,8.766-4.203,16.992-8.625,24.297L180.547,232.313z    M171.086,141.977c6.273-4.742,12.922-8.43,19.758-10.93c6.069-2.203,12.108-3.365,17.444-3.365c6.367,0,11.383,1.662,13.742,4.592   l1.203,1.57c-14.281,1.578-29.984,7.836-44.241,18.633c-14.297,10.82-24.633,24.297-30.039,37.688l-1.219-1.633   C142.383,180.828,148.805,158.844,171.086,141.977z" fill="#F4F6F9"/>
    </symbol>
    <symbol id="moimir" viewBox="0 0 512 512">
        <g><circle cx="255.999" cy="256" r="251.408"/></g>
        <g transform="scale(15) translate(5,5)">
            <circle cx="8.1241" cy="7.06317" r="1.66129" style="fill:#FFFFFF"/>
            <circle cx="15.87679" cy="7.06317" r="1.66129" style="fill:#FFFFFF"/>
            <path d="M2.98242,18.03076a1.00007,1.00007,0,0,1-.84668-1.53027L4.646,12.48584a.99986.99986,0,0,1,1.69531,1.06055L3.83105,17.561A.99861.99861,0,0,1,2.98242,18.03076Z" style="fill:#FFFFFF"/>
            <path d="M11.99121,18.72314a9.94267,9.94267,0,0,1-7.88428-3.84863l1.57617-1.23145a8.00027,8.00027,0,0,0,12.61377.00391l1.5752,1.23145A9.94309,9.94309,0,0,1,11.99121,18.72314Z" style="fill:#FFFFFF"/>
            <path d="M21.00928,18.03076a.99861.99861,0,0,1-.84863-.46973l-2.51025-4.01465a.99986.99986,0,0,1,1.69531-1.06055L21.856,16.50049a1.00007,1.00007,0,0,1-.84668,1.53027Z" style="fill:#FFFFFF"/>
        </g>

    </symbol>
    <symbol id="yandex" viewBox="0 0 512 512">
        <g><circle cx="255.999" cy="256" r="251.408"/></g><path d="M313.475,105.366h-45.648c-44.854,0-82.892,34.142-82.892,100.427  c0,39.765,18.42,69.084,51.25,83.547l-61.262,110.869c-2.005,3.619,0,6.426,3.202,6.426h28.433c2.4,0,4.01-0.801,4.81-2.807  l55.659-108.863h20.021v108.863c0,1.197,1.197,2.807,2.799,2.807h24.832c2.4,0,3.203-1.205,3.203-3.205V109.383  C317.881,106.571,316.279,105.366,313.475,105.366z M287.047,269.26h-16.818c-26.427,0-52.053-19.281-52.053-67.483  c0-50.22,24.024-70.705,48.448-70.705h20.424V269.26z" fill="#FFFFFF" id="path40"/>
    </symbol>
    <symbol id="google" viewBox="0 0 640 640">
        <path d="M320 12.8c-169.664 0-307.2 137.536-307.2 307.2s137.536 307.2 307.2 307.2 307.2-137.536 307.2-307.2-137.536-307.2-307.2-307.2zM302.304 451.872c-19.296 9.376-40.064 10.368-48.096 10.368-1.536 0-2.4 0-2.4 0s-0.736 0-1.728 0c-12.544 0-74.976-2.88-74.976-59.744 0-55.872 68-60.256 88.832-60.256h0.544c-12.032-16.064-9.536-32.256-9.536-32.256-1.056 0.064-2.592 0.128-4.48 0.128-7.84 0-22.976-1.248-35.968-9.632-15.936-10.24-24-27.68-24-51.808 0-68.192 74.464-70.944 75.2-71.008h74.368v1.632c0 8.32-14.944 9.952-25.12 11.328-3.456 0.512-10.4 1.184-12.352 2.176 18.848 10.080 21.888 25.888 21.888 49.44 0 26.816-10.496 40.992-21.632 50.944-6.912 6.176-12.32 11.008-12.32 17.504 0 6.368 7.424 12.864 16.064 20.448 14.112 12.448 33.472 29.376 33.472 57.952 0 29.536-12.704 50.656-37.76 62.784zM464 320h-48v48h-32v-48h-48v-32h48v-48h32v48h48v32zM263.136 356.8c-1.664 0-3.328 0.064-5.024 0.192-14.208 1.056-27.328 6.368-36.8 15.008-9.408 8.512-14.208 19.264-13.536 30.112 1.44 22.752 25.856 36.064 55.52 33.952 29.184-2.112 48.64-18.944 47.232-41.696-1.344-21.376-19.936-37.568-47.392-37.568zM291.104 233.12c-7.744-27.2-20.224-35.264-39.616-35.264-2.080 0-4.192 0.32-6.208 0.864-8.416 2.4-15.104 9.408-18.816 19.84-3.808 10.56-4.032 21.568-0.768 34.112 5.92 22.432 21.856 38.688 37.92 38.688 2.112 0 4.224-0.256 6.208-0.864 17.568-4.928 28.576-31.744 21.28-57.376z"></path>
    </symbol>
</svg>
